<?xml version="1.0" encoding="utf-8"?>
<!-- Generator: Adobe Illustrator 25.3.1, SVG Export Plug-In . SVG Version: 6.00 Build 0)  -->
<svg version="1.1" id="Layer_1" xmlns="http://www.w3.org/2000/svg" xmlns:xlink="http://www.w3.org/1999/xlink" x="0px" y="0px"
	 viewBox="0 0 1007.6 195.6" style="enable-background:new 0 0 1007.6 195.6;" xml:space="preserve">
<style type="text/css">
	.st0{fill:#363636;}
	.st1{fill:#008575;}
</style>
<g>
	<g>
		<path class="st0" d="M258.1,168.7v10.6c-4.7,0.6-8.8,0.9-12.3,0.9c-16.7,0-25.1-8.7-25.1-26.2v-52.1h-15.3V91.4h15.3l0.6-21.7
			l12.5-1.2v22.9h30.5v10.5h-30.5v54.3c0,8.9,4.6,13.4,13.8,13.4C250.7,169.6,254.2,169.3,258.1,168.7z"/>
		<path class="st0" d="M340.5,177.8h-13.4v-52.4c0-6.2-0.4-10.7-1.2-13.9c-0.7-3.1-2.6-5.7-5.5-8c-2.9-2.2-6.2-3.4-10-3.4
			c-6.9,0-12.7,2.8-17.3,8.5c-4.6,5.6-6.9,13.2-6.9,22.7v46.5h-13.4V61.1h13.4v46.3C292.3,95.1,301,89,312.4,89c5.1,0,9.6,1,13.5,3
			c4,2,7,4.6,9.1,7.9s3.6,6.4,4.3,9.6c0.8,3.2,1.2,8.5,1.2,15.9V177.8z"/>
		<path class="st0" d="M369.8,177.8h-13.4V91.4h11.8v20.2c4.1-9.5,8.3-15.7,12.5-18.5s8.5-4.2,12.9-4.2c1.4,0,3.1,0.1,5.3,0.3V102
			h-2.7c-7.4,0-13.6,2.8-18.5,8.3s-7.5,12.8-7.9,21.8L369.8,177.8L369.8,177.8z"/>
		<path class="st0" d="M424.7,66.7v15h-14.4v-15H424.7z M424.3,91.4v86.4h-13.4V91.4H424.3z"/>
		<path class="st0" d="M495.4,91.4v10.5h-29v75.9H453v-75.9h-18.3V91.4H453c0.2-13.9,2.9-22.8,8-26.8s11.3-6,18.7-6
			c3.6,0,7.7,0.4,12.3,1.2v10.7c-2.9-0.7-5.7-1.1-8.3-1.1c-5.9,0-10.2,1.3-13,3.9s-4.2,7.5-4.2,14.6v3.5
			C466.5,91.4,495.4,91.4,495.4,91.4z"/>
		<path class="st0" d="M547.6,168.7v10.6c-4.7,0.6-8.8,0.9-12.3,0.9c-16.7,0-25-8.7-25-26.2v-52.1H495V91.4h15.3l0.6-21.7l12.5-1.2
			v22.9h29.2v10.5h-29.2v54.3c0,8.9,4.6,13.4,13.9,13.4C540.2,169.6,543.7,169.3,547.6,168.7z"/>
		<path class="st0" d="M569.4,177.8h-8.8V61.1h19.5v42.2c3.7-6.5,7.4-10.7,11.1-12.7c3.7-2,8-3.1,13-3.1c9.5,0,17.3,4,23.5,12
			s9.3,19.2,9.3,33.4c0,12.9-3.1,23.9-9.2,33c-6.1,9.1-14.9,13.7-26.4,13.7s-20.5-5.3-26.8-16L569.4,177.8z M580.1,140.9
			c0,7.7,1.7,13.4,5,17.1c3.3,3.6,7.7,5.5,13,5.5c5.1,0,9.4-2.1,12.9-6.3s5.3-12.5,5.5-24.8c0-9-1.6-15.9-4.7-20.8
			c-3.1-4.9-7.6-7.3-13.3-7.3c-5.3,0-9.8,2.1-13.3,6.2c-3.5,4.2-5.2,10-5.2,17.6L580.1,140.9L580.1,140.9z"/>
		<path class="st0" d="M685.9,179.6c-12.8,0-22.5-4.6-29.3-13.8c-6.7-9.2-10.1-19.7-10.1-31.6c0-12.8,3.7-23.4,11.2-31.9
			c7.4-8.5,17.3-12.8,29.5-12.8c11.6,0,21.1,4.1,28.5,12.4s11.2,19,11.2,32.3c0,13.7-3.9,24.6-11.6,32.9
			C707.5,175.4,697.7,179.6,685.9,179.6z M686.5,163.5c13.1,0,19.7-9.8,19.7-29.3c0-8.9-1.5-15.8-4.7-20.9s-8-7.7-14.4-7.7
			c-6.7,0-11.7,2.6-15,7.9c-3.2,5.3-4.9,12.3-4.9,21c0,9.4,1.7,16.6,5.2,21.5C675.8,161,680.6,163.5,686.5,163.5z"/>
		<path class="st0" d="M775.6,179.6c-12.7,0-22.5-4.6-29.2-13.8s-10.1-19.7-10.1-31.6c0-12.8,3.7-23.4,11.1-31.9
			c7.4-8.5,17.3-12.8,29.5-12.8c11.5,0,21.1,4.1,28.5,12.4c7.5,8.3,11.2,19,11.2,32.3c0,13.7-3.9,24.6-11.6,32.9
			C797.3,175.4,787.5,179.6,775.6,179.6z M776.3,163.5c13.1,0,19.7-9.8,19.7-29.3c0-8.9-1.6-15.8-4.7-20.9c-3.1-5.1-8-7.7-14.5-7.7
			c-6.7,0-11.7,2.6-15,7.9s-4.9,12.3-4.9,21c0,9.4,1.7,16.6,5.2,21.5C765.6,161,770.3,163.5,776.3,163.5z"/>
		<path class="st0" d="M906.4,177.8h-20.5l-22.1-44.3L844.6,155v22.8H826V61.1h18.7v72.4c1.7-2.1,3-3.8,3.9-4.9l34.2-37.2h20.9
			l-26,28.6L906.4,177.8z"/>
		<path class="st0" d="M905.9,158l18.3-3.5c2.8,7,9,10.5,18.5,10.5c12.1,0,18.1-3.5,18.1-10.7c0-2.3-0.9-4.2-2.8-5.6
			c-1.9-1.5-4.1-2.5-6.7-3l-15.7-3c-17.4-3.4-26.2-11.9-26.2-25.6c0-7.6,2.8-14.1,8.3-19.5c5.5-5.3,13.8-8,24.7-8
			c18.2,0,29.4,6.7,33.4,20.1l-17.4,3.5c-1.8-6.5-7-9.8-15.6-9.8c-10.4,0-15.6,3.3-15.6,9.8c0,4.5,4.2,7.6,12.6,9.3l18.6,3.9
			c14.4,3,21.6,11.2,21.6,24.8c0,9.5-3.7,16.6-11.1,21.3c-7.4,4.7-16.2,7.1-26.4,7.1c-8.8,0-16.6-1.8-23.4-5.3
			C912.3,170.7,907.9,165.3,905.9,158z"/>
	</g>
	<g>
		<g>
			<path class="st1" d="M58,79.2l8.7-49.5c0.3-1.7-0.8-3.3-2.5-3.6l-32-5.6c-0.2,0-0.3,0.1-0.4,0.3l-9,51.3L58,79.2z"/>
			<path class="st1" d="M21.7,79.1l-18.2,104c0,0.2,0.1,0.4,0.3,0.4l31.9,5.6c1.7,0.3,3.2-0.8,3.5-2.5L57,84.9L21.7,79.1z"/>
		</g>
		<path class="st1" d="M170.4,182.8L155.7,59.6L128.3,63l2.5,19.8l12.3-1.1l1.1,9L131.8,92l11.6,97.2l24.3-2.9
			C169.4,186,170.6,184.5,170.4,182.8"/>
		<g>
			<polygon class="st1" points="66,146.8 116.9,147.6 116.9,140.9 66,140.9 			"/>
			<polygon class="st1" points="116.9,159.9 116.9,153.4 66,153.2 66,159.3 			"/>
			<polygon class="st1" points="116.9,189.1 116.9,166.2 66,164.9 66,189.1 			"/>
			<path class="st1" d="M116.9,7.9V136L66,136.1L66.5,9.2L116.9,7.9z"/>
		</g>
	</g>
</g>
<g>
	<path class="st0" d="M1002.2,99.5c0,2.9-1,5.3-3.1,7.4s-4.5,3.1-7.4,3.1s-5.3-1-7.4-3.1s-3.1-4.5-3.1-7.4s1-5.3,3.1-7.4
		s4.5-3.1,7.4-3.1s5.3,1,7.3,3.1S1002.2,96.7,1002.2,99.5z M1000.3,99.5c0-2.4-0.8-4.5-2.5-6.2s-3.7-2.6-6-2.6
		c-2.4,0-4.4,0.9-6.1,2.6c-1.7,1.7-2.5,3.8-2.5,6.2c0,2.4,0.8,4.5,2.5,6.2s3.7,2.6,6.1,2.6c2.3,0,4.4-0.9,6-2.6
		C999.5,104,1000.3,102,1000.3,99.5z M997,105.6h-2.7l-2-4.9h-2.9v4.9h-2.6V93.5h5.6c1.5,0,2.7,0.3,3.4,1c0.8,0.7,1.1,1.5,1.1,2.6
		c0,1.5-0.7,2.6-2.2,3.2L997,105.6z M989.5,98.8h2.7c1.5,0,2.3-0.6,2.3-1.7s-0.7-1.7-2.1-1.7h-2.8v3.4
		C989.6,98.8,989.5,98.8,989.5,98.8z"/>
</g>
</svg>
